<?xml version="1.0" encoding="utf-8"?>
<!-- Generator: Adobe Illustrator 24.3.0, SVG Export Plug-In . SVG Version: 6.00 Build 0)  -->
<svg version="1.1" id="Layer_1" xmlns="http://www.w3.org/2000/svg" xmlns:xlink="http://www.w3.org/1999/xlink" x="0px" y="0px"
	 viewBox="0 0 1598 1148" style="enable-background:new 0 0 1598 1148;" xml:space="preserve">
<style type="text/css">
	.st0{fill:#0185FF;}
	.st1{clip-path:url(#SVGID_2_);}
	.st2{fill:#FED607;}
	.st3{fill:#03D47C;}
	.st4{fill:#0B1B34;}
	.st5{fill:#FFFFFF;}
	.st6{clip-path:url(#SVGID_4_);}
	.st7{clip-path:url(#SVGID_6_);}
</style>
<rect class="st0" width="1598" height="1148"/>
<g>
	<g>
		<defs>
			<path id="SVGID_1_" d="M1261.9,707.6l423.9,266.7c9.8,6.1,12.7,19,6.5,28.8l-158.7,252.3c-6.1,9.8-19,12.7-28.8,6.5l-423.9-266.7
				c-9.8-6.1-12.7-19-6.5-28.8l158.7-252.2C1239.2,704.4,1252.1,701.5,1261.9,707.6z"/>
		</defs>
		<clipPath id="SVGID_2_">
			<use xlink:href="#SVGID_1_"  style="overflow:visible;"/>
		</clipPath>
		<g class="st1">
			<path class="st2" d="M1261.9,707.6l423.9,266.7c9.8,6.1,12.7,19,6.5,28.8l-158.7,252.3c-6.1,9.8-19,12.7-28.8,6.5l-423.9-266.7
				c-9.8-6.1-12.7-19-6.5-28.8l158.7-252.2C1239.2,704.4,1252.1,701.5,1261.9,707.6z"/>
			<path class="st3" d="M1459.3,1197.7l162.5-179c18.3-20.2,24.9-47.1,19.9-71.9l-328.1-206.6l-161.5,178.3
				c-30.8,33.9-28.1,86.2,5.6,116.9l29,26.4l246.8,155.3C1442.9,1212.5,1451.9,1206.1,1459.3,1197.7z"/>
			<path class="st0" d="M1409.7,1149.6l171.7-140.4c23.5-19.3,37.8-45.8,42.3-73.6l-357.5-225l-63.6,52.1l-106.4,169.2
				c3.7,18.4,11.7,36.3,24.4,51.8l61,74.9l181.6,114.3C1379.7,1168.8,1395.6,1161,1409.7,1149.6z"/>
			<path class="st4" d="M1358,1100.6l180.9-105.2c29.9-17.4,51.3-43.8,62.6-73.9l-341.1-214.6c-8.9-5.6-20.9-2.9-26.4,5.9
				l-160.5,255.1c-5.7,9-2.8,20.8,6.1,26.4l199.4,125.5C1305.7,1121.2,1333,1115,1358,1100.6z"/>
			<path class="st5" d="M1253.2,823.9l21.2,13.3l4-6.3l-13.4-8.5l3.7-5.9l11.5,7.2l4-6.4l-11.5-7.2l3.5-5.6l13.4,8.5l3.9-6.2
				l-21.2-13.3L1253.2,823.9z"/>
			<path class="st3" d="M1299.9,832c-4,6.4-9.9,10.8-16.5,13l1.7,7.7c8.5-2.7,16.2-8.3,21.4-16.5c5.1-8.1,6.8-17.3,5.7-26l-7.7,1.7
				C1305.3,818.6,1303.8,825.7,1299.9,832z"/>
			<path class="st0" d="M1277.2,846.4c-6.9,0.8-14.1-0.6-20.5-4.6c-6.2-3.9-10.6-9.7-12.9-16.1l-7.7,1.7c2.7,8.5,8.3,16,16.4,21
				c8.2,5.2,17.6,6.9,26.4,5.6L1277.2,846.4z"/>
			<path class="st2" d="M1242.4,819.5c-0.9-7.1,0.5-14.4,4.6-20.9c9.2-14.6,28.5-19,43.2-9.8c6.5,4.1,10.9,10.1,13.1,16.9l7.7-1.7
				c-2.7-8.7-8.4-16.5-16.6-21.7c-18.3-11.5-42.4-6-53.9,12.3c-5.2,8.3-7,17.8-5.6,26.8L1242.4,819.5z"/>
			<g>
				<path class="st5" d="M1132,967.4l3.9,2.5c3,1.9,3.6,5,1.8,7.9c-1.9,3-5.1,3.8-8,1.9l-3.9-2.5L1132,967.4z M1130.7,977.9
					c1.7,1,3.5,0.1,4.6-1.6c1.1-1.8,1.1-3.7-0.6-4.8l-1.5-0.9l-4,6.4L1130.7,977.9z"/>
				<path class="st5" d="M1136,982.1c0.5-0.7,1.4-1,2.2-0.4s1,1.5,0.6,2.2s-1.4,1-2.2,0.5C1135.7,983.8,1135.6,982.8,1136,982.1z"/>
				<path class="st5" d="M1153.1,990.6c-1,1.6-2.8,2.1-5.1,0.7l-4.6-2.9l6.2-9.9l4.4,2.8c2.3,1.4,2.6,3.2,1.7,4.6
					c-0.6,1-1.8,1.5-3.2,1.1C1153.7,987.9,1153.9,989.3,1153.1,990.6z M1150.9,981.6l-1.5,2.4l1.5,0.9c1.1,0.7,1.8,0.4,2.2-0.3
					c0.4-0.7,0.3-1.5-0.7-2.1L1150.9,981.6z M1150.8,988.9c0.5-0.8,0.3-1.6-0.7-2.2l-1.7-1.1l-1.6,2.6l1.6,1
					C1149.5,989.9,1150.3,989.6,1150.8,988.9z"/>
				<path class="st5" d="M1153.3,992c0.4-0.7,1-1,1.7-1.1c0.7,0,1.5,0.2,2.6,0.7l1.8,0.8l0.1-0.2c0.5-0.8,0.4-1.3-0.3-1.8
					c-0.7-0.4-1.3-0.3-1.8,0.3l-2.2-1.4c1.1-1.5,2.9-1.6,4.9-0.4c2.2,1.4,2.7,2.9,1.4,4.9l-1.5,2.3c-0.5,0.8-0.9,1.5-1,2.1l-2.2-1.4
					c0.1-0.4,0.3-0.8,0.6-1.2c-0.8,0.6-2,0.5-3.1-0.2C1153,994.6,1152.6,993.2,1153.3,992z M1158.5,994.1l0.3-0.6l-1.3-0.6
					c-0.9-0.4-1.5-0.3-1.8,0.2s-0.1,1.1,0.5,1.4C1157,995.2,1157.9,995,1158.5,994.1z"/>
				<path class="st5" d="M1169.6,994.9L1169.6,994.9l-1.2,2.2c-0.1-0.1-0.2-0.2-0.4-0.3c-0.6-0.4-1.1-0.5-1.6-0.4
					c-0.7,0.1-1.2,0.7-1.7,1.4l-1.8,2.8l-2.2-1.4l4.4-6.9l2.1,1.3l-1.1,1.8C1167.2,994.4,1168.4,994.2,1169.6,994.9z"/>
				<path class="st5" d="M1175.3,998.5L1175.3,998.5l-1.2,2.2c-0.1-0.1-0.2-0.2-0.4-0.3c-0.6-0.4-1.1-0.5-1.6-0.4
					c-0.7,0.1-1.2,0.7-1.7,1.4l-1.8,2.8l-2.2-1.4l4.4-6.9l2.1,1.3l-1.1,1.8C1172.9,998,1174.1,997.8,1175.3,998.5z"/>
				<path class="st5" d="M1180.3,1007.5l-4.8-3c-0.6,1-0.3,2,0.6,2.5c0.7,0.4,1.4,0.4,2.1,0l1.2,1.8c-1.3,0.8-2.9,0.7-4.3-0.2
					c-2.3-1.4-2.9-3.6-1.4-5.9c1.4-2.3,3.7-2.9,5.9-1.5c2.2,1.4,2.6,3.4,1.2,5.6L1180.3,1007.5z M1179,1004.8c0.6-1,0.5-1.8-0.3-2.3
					c-0.9-0.5-1.7-0.3-2.4,0.7L1179,1004.8L1179,1004.8z"/>
				<path class="st5" d="M1183.3,1003.8l1.2,0.8l1-1.7l2.8,0.5l-1.6,2.5l1.7,1l-0.9,1.5l-1.7-1l-1.7,2.7c-0.4,0.7-0.3,1.3,0.3,1.7
					c0.3,0.2,0.4,0.2,0.7,0.3l-1.1,1.8c-0.6-0.2-0.9-0.4-1.4-0.7c-1.8-1.2-2.1-2.5-1.1-4l2-3.2l-1.2-0.8L1183.3,1003.8z"/>
				<path class="st5" d="M1189.3,1007.5l1.2,0.8l1-1.7l2.8,0.5l-1.6,2.5l1.7,1l-0.9,1.5l-1.7-1l-1.7,2.7c-0.4,0.7-0.3,1.3,0.3,1.7
					c0.3,0.2,0.4,0.2,0.7,0.3l-1.1,1.8c-0.6-0.2-0.9-0.4-1.4-0.7c-1.8-1.2-2.1-2.5-1.1-4l2-3.2l-1.2-0.8L1189.3,1007.5z"/>
			</g>
		</g>
		<use xlink:href="#SVGID_1_"  style="overflow:visible;fill:none;stroke:#0185FF;stroke-miterlimit:10;"/>
	</g>
</g>
<g>
	<g>
		<defs>
			<path id="SVGID_3_" d="M547,339.9l491.1-98c11.3-2.3,22.3,5.1,24.5,16.4l58.4,292.3c2.3,11.3-5.1,22.3-16.4,24.5l-491.1,98
				c-11.3,2.3-22.3-5.1-24.5-16.4l-58.4-292.3C528.4,353.1,535.7,342.1,547,339.9z"/>
		</defs>
		<clipPath id="SVGID_4_">
			<use xlink:href="#SVGID_3_"  style="overflow:visible;"/>
		</clipPath>
		<g class="st6">
			<path class="st2" d="M547,339.9l491.1-98c11.3-2.3,22.3,5.1,24.5,16.4l58.4,292.3c2.3,11.3-5.1,22.3-16.4,24.5l-491.1,98
				c-11.3,2.3-22.3-5.1-24.5-16.4l-58.4-292.3C528.4,353.1,535.7,342.1,547,339.9z"/>
			<path class="st3" d="M1027.5,559.7l-5.2-241.7c-0.7-27.3-14.3-51.3-35-65.9L607,328l5.5,240.5c0.9,45.8,38.9,81.9,84.5,81
				l39.2-0.8l285.9-57.1C1025.8,581.7,1027.9,570.9,1027.5,559.7z"/>
			<path class="st0" d="M958.4,559l28-220c3.8-30.2-4.1-59.2-19.9-82.5l-414.2,82.7l-10.4,81.6l39.1,196
				c15.4,10.7,33.5,18.2,53.3,20.8l95.8,12.4l210.4-42C949.8,593.5,956,576.9,958.4,559z"/>
			<path class="st4" d="M887.1,558.9L946,358c9.8-33.2,7.1-67.1-5.4-96.7l-395.2,78.9c-10.3,2.1-17.1,12.3-15.1,22.5l59,295.5
				c2.1,10.5,12.3,17,22.6,15l231-46.1C863.4,609.9,879,586.6,887.1,558.9z"/>
			<path class="st5" d="M620.7,430.2l24.6-4.9l-1.5-7.3l-15.6,3.1l-1.4-6.8l13.3-2.6l-1.5-7.4l-13.3,2.6l-1.3-6.5l15.6-3.1l-1.4-7.2
				l-24.6,4.9L620.7,430.2z"/>
			<path class="st3" d="M660.2,403.9c1.5,7.4,0.2,14.6-3,20.8l6.5,4.4c4.3-7.8,6.1-17.2,4.2-26.7c-1.9-9.4-7-17.3-13.8-22.8
				l-4.4,6.5C654.9,390.5,658.8,396.7,660.2,403.9z"/>
			<path class="st0" d="M653.7,430c-4.4,5.4-10.7,9.3-18,10.8c-7.2,1.4-14.4,0.2-20.4-2.9l-4.4,6.5c7.8,4.3,17,5.9,26.3,4
				c9.5-1.9,17.5-7.1,23-14.1L653.7,430z"/>
			<path class="st2" d="M609.9,434.5c-5.5-4.5-9.6-10.8-11.1-18.3c-3.4-17,7.6-33.4,24.6-36.8c7.5-1.5,14.9-0.2,21.1,3.2l4.4-6.5
				c-7.9-4.5-17.4-6.3-27-4.3c-21.2,4.2-34.9,24.8-30.7,46c1.9,9.6,7.2,17.7,14.4,23.3L609.9,434.5z"/>
			<g>
				<path class="st5" d="M631.5,617.7l4.6-0.9c3.4-0.7,6.1,1.2,6.8,4.5c0.7,3.4-1.1,6.2-4.5,6.9l-4.5,0.9L631.5,617.7z M637.8,626.3
					c1.9-0.4,2.6-2.3,2.2-4.4c-0.4-2.1-1.7-3.5-3.7-3.1l-1.7,0.3l1.5,7.4L637.8,626.3z"/>
				<path class="st5" d="M644.6,625.6c-0.2-0.9,0.3-1.7,1.3-1.9s1.8,0.4,1.9,1.2c0.2,0.9-0.3,1.7-1.3,1.9S644.7,626.5,644.6,625.6z"
					/>
				<path class="st5" d="M662.8,620c0.4,1.8-0.6,3.5-3.2,4l-5.4,1.1l-2.3-11.4l5.2-1c2.6-0.5,4.1,0.5,4.4,2.2
					c0.2,1.2-0.3,2.3-1.6,2.9C661.4,617.7,662.5,618.5,662.8,620z M655,615l0.6,2.8l1.7-0.3c1.2-0.2,1.6-1,1.4-1.7
					c-0.2-0.8-0.8-1.3-2-1L655,615z M659.9,620.4c-0.2-0.9-0.9-1.4-2-1.1l-1.9,0.4l0.6,3l1.9-0.4C659.6,622,660.1,621.3,659.9,620.4
					z"/>
				<path class="st5" d="M663.9,620.9c-0.2-0.8,0-1.4,0.5-1.9s1.2-0.9,2.4-1.3l1.9-0.7l-0.1-0.3c-0.2-0.9-0.7-1.2-1.5-1.1
					c-0.8,0.2-1.2,0.7-1.1,1.4l-2.6,0.5c-0.2-1.8,1-3.2,3.3-3.6c2.6-0.5,4,0.3,4.4,2.6l0.5,2.7c0.2,1,0.4,1.7,0.7,2.2l-2.5,0.5
					c-0.2-0.4-0.3-0.8-0.4-1.2c-0.2,1-1.1,1.8-2.4,2C665.5,623.1,664.2,622.3,663.9,620.9z M669.1,618.9l-0.1-0.6l-1.3,0.5
					c-0.9,0.4-1.3,0.8-1.2,1.4c0.1,0.6,0.6,0.8,1.3,0.7C668.8,620.7,669.3,619.9,669.1,618.9z"/>
				<path class="st5" d="M677.7,611.8h0.2l0.5,2.5c-0.2,0-0.3,0-0.5,0.1c-0.7,0.1-1.2,0.4-1.5,0.8c-0.4,0.6-0.4,1.3-0.2,2.2l0.7,3.3
					l-2.6,0.5l-1.6-8.1l2.4-0.5l0.4,2.1C675.6,613.1,676.3,612.1,677.7,611.8z"/>
				<path class="st5" d="M684.3,610.5h0.2l0.5,2.5c-0.2,0-0.3,0-0.5,0.1c-0.7,0.1-1.2,0.4-1.5,0.8c-0.4,0.6-0.4,1.3-0.2,2.2l0.7,3.3
					l-2.6,0.5l-1.6-8.1l2.4-0.5l0.4,2.1C682.2,611.8,682.9,610.8,684.3,610.5z"/>
				<path class="st5" d="M694.1,613.5l-5.6,1.1c0.2,1.1,1.1,1.6,2.2,1.4c0.8-0.2,1.3-0.7,1.5-1.5l2.1,0.5c-0.4,1.4-1.6,2.5-3.3,2.8
					c-2.7,0.5-4.6-0.7-5.1-3.3s0.7-4.6,3.2-5.1s4.2,0.7,4.7,3.2L694.1,613.5z M691.3,612.5c-0.2-1.1-0.9-1.6-1.8-1.5
					c-1,0.2-1.4,1-1.2,2.1L691.3,612.5L691.3,612.5z"/>
				<path class="st5" d="M693.8,608.8l1.4-0.3l-0.4-1.9l2.4-1.5l0.6,2.9l1.9-0.4l0.3,1.7l-1.9,0.4l0.6,3.1c0.2,0.8,0.6,1.1,1.4,1
					c0.3-0.1,0.5-0.1,0.7-0.2l0.4,2c-0.6,0.2-1,0.4-1.4,0.5c-2.1,0.4-3.2-0.4-3.6-2.1l-0.7-3.7l-1.4,0.3L693.8,608.8z"/>
				<path class="st5" d="M700.7,607.5l1.4-0.3l-0.4-1.9l2.4-1.5l0.6,2.9l1.9-0.4l0.3,1.7l-1.9,0.4l0.6,3.1c0.2,0.8,0.6,1.1,1.4,1
					c0.3-0.1,0.5-0.1,0.7-0.2l0.4,2c-0.6,0.2-1,0.4-1.4,0.5c-2.1,0.4-3.2-0.4-3.6-2.1l-0.7-3.7l-1.4,0.3L700.7,607.5z"/>
			</g>
		</g>
		<use xlink:href="#SVGID_3_"  style="overflow:visible;fill:none;stroke:#0185FF;stroke-miterlimit:10;"/>
	</g>
</g>
<g>
	<g>
		<defs>
			<path id="SVGID_5_" d="M73.8-309.1l488.4,111c11.2,2.6,18.3,13.7,15.7,25l-66,290.7c-2.6,11.2-13.7,18.3-25,15.7L-1.5,22.3
				c-11.2-2.6-18.3-13.7-15.7-25l66-290.7C51.4-304.6,62.5-311.6,73.8-309.1z"/>
		</defs>
		<clipPath id="SVGID_6_">
			<use xlink:href="#SVGID_5_"  style="overflow:visible;"/>
		</clipPath>
		<g class="st7">
			<path class="st2" d="M73.8-309.1l488.4,111c11.2,2.6,18.3,13.7,15.7,25l-66,290.7c-2.6,11.2-13.7,18.3-25,15.7L-1.5,22.3
				c-11.2-2.6-18.3-13.7-15.7-25l66-290.7C51.4-304.6,62.5-311.6,73.8-309.1z"/>
			<path class="st3" d="M422.7,87.7l93.9-222.8c10.5-25.2,7.8-52.6-5.1-74.5l-378.2-85.9L40.1-73.7C22.3-31.5,42.2,17,84.2,34.7
				L120.3,50l284.3,64.6C412.1,107.2,418.5,98.1,422.7,87.7z"/>
			<path class="st0" d="M359.9,58.8l115.4-189.5c15.8-26,20.4-55.7,15.5-83.5L78.9-307.8l-42.7,70.2L-8.1-42.5
				C1.5-26.4,15-12.2,32.1-1.7l82.4,50.4l209.2,47.5C337.9,86.9,350.4,74.2,359.9,58.8z"/>
			<path class="st4" d="M294.8,29.7l135.8-159.3c22.5-26.3,33.9-58.4,34.5-90.5l-393-89.3c-10.2-2.3-20.6,4.2-23,14.4L-17.5-1.2
				C-19.9,9.2-13.2,19.4-3,21.7l229.7,52.2C252.4,66.5,276.1,51.7,294.8,29.7z"/>
			<path class="st5" d="M104.2-196.5l24.4,5.5l1.6-7.2l-15.5-3.5l1.5-6.8l13.2,3l1.7-7.4l-13.2-3l1.5-6.5l15.5,3.5l1.6-7.2
				l-24.4-5.5L104.2-196.5z"/>
			<path class="st3" d="M150.9-204.4c-1.7,7.3-5.8,13.5-11.3,17.7l4.2,6.6c7.2-5.4,12.5-13.2,14.7-22.7c2.1-9.3,0.7-18.6-3.3-26.4
				l-6.6,4.2C151.5-218.8,152.5-211.6,150.9-204.4z"/>
			<path class="st0" d="M134.3-183.3c-6.2,3.1-13.5,4.1-20.9,2.5c-7.2-1.6-13.2-5.7-17.5-11l-6.6,4.2c5.4,7.1,13.2,12.3,22.4,14.4
				c9.5,2.1,18.9,0.7,26.8-3.5L134.3-183.3z"/>
			<path class="st2" d="M92.5-197c-3.2-6.3-4.3-13.7-2.6-21.2c3.8-16.9,20.6-27.4,37.5-23.6c7.5,1.7,13.7,5.9,18,11.6l6.6-4.2
				c-5.4-7.3-13.4-12.8-22.9-15c-21.1-4.8-42,8.4-46.8,29.5c-2.2,9.5-0.7,19.1,3.6,27.1L92.5-197z"/>
			<g>
				<path class="st5" d="M37.5-20.9l4.5,1c3.4,0.8,5.1,3.6,4.3,6.9c-0.8,3.4-3.5,5.2-7,4.5l-4.5-1L37.5-20.9z M39.7-10.5
					c1.9,0.4,3.4-1.1,3.8-3.1c0.5-2.1-0.2-3.9-2.1-4.3l-1.7-0.4L38-10.9L39.7-10.5z"/>
				<path class="st5" d="M46.2-8.4c0.2-0.8,1-1.4,2-1.2s1.5,1,1.3,1.9c-0.2,0.8-1,1.4-2,1.2C46.4-6.7,46-7.5,46.2-8.4z"/>
				<path class="st5" d="M65.1-6c-0.4,1.8-2,2.9-4.6,2.3l-5.3-1.2l2.6-11.4l5.1,1.2c2.6,0.6,3.5,2.1,3.1,3.8c-0.3,1.2-1.2,2-2.6,2
					C64.8-8.7,65.4-7.5,65.1-6z M60-13.8L59.4-11l1.7,0.4c1.2,0.3,1.8-0.2,2-1s-0.2-1.5-1.4-1.8L60-13.8z M62.3-6.9
					c0.2-0.9-0.3-1.6-1.4-1.9L59-9.2l-0.7,3l1.9,0.4C61.4-5.5,62.1-6,62.3-6.9z"/>
				<path class="st5" d="M65.8-4.8C66-5.6,66.4-6.1,67-6.3c0.6-0.2,1.4-0.3,2.7-0.2l2,0.2l0.1-0.3C72-7.5,71.7-8,70.9-8.2
					c-0.8-0.2-1.3,0.1-1.6,0.9l-2.5-0.6c0.5-1.7,2.2-2.5,4.5-2c2.6,0.6,3.5,1.9,3,4.2L73.7-3c-0.2,0.9-0.3,1.7-0.3,2.3l-2.6-0.7
					c0-0.4,0.1-0.8,0.2-1.3c-0.6,0.8-1.8,1.1-3,0.8C66.3-2.2,65.4-3.4,65.8-4.8z M71.3-4.5l0.1-0.6L70-5.2c-1,0-1.5,0.2-1.6,0.8
					s0.2,1,0.9,1.2C70.3-3,71.1-3.5,71.3-4.5z"/>
				<path class="st5" d="M82-7.4h0.2l-0.6,2.5C81.4-5,81.3-5,81.1-5c-0.7-0.2-1.2-0.1-1.7,0.1c-0.6,0.4-0.9,1.1-1.1,1.9l-0.7,3.3
					L75-0.3l1.8-8l2.4,0.5l-0.5,2.1C79.6-7.1,80.7-7.7,82-7.4z"/>
				<path class="st5" d="M88.6-5.9h0.2l-0.6,2.5c-0.2-0.1-0.3-0.1-0.5-0.1C87-3.7,86.5-3.6,86-3.4c-0.6,0.4-0.9,1.1-1.1,1.9
					l-0.7,3.3l-2.6-0.6l1.8-8l2.4,0.5l-0.5,2.1C86.2-5.6,87.3-6.2,88.6-5.9z"/>
				<path class="st5" d="M96.4,0.8l-5.6-1.2c-0.2,1.1,0.4,2,1.4,2.2c0.8,0.2,1.5-0.1,2-0.7l1.7,1.3C95,3.6,93.4,4,91.8,3.7
					c-2.6-0.6-3.9-2.5-3.3-5.1c0.6-2.6,2.5-3.9,5-3.4c2.5,0.6,3.6,2.3,3,4.9L96.4,0.8z M94.2-1.2c0.3-1.1-0.1-1.9-1.1-2.1
					s-1.7,0.3-2,1.4L94.2-1.2L94.2-1.2z"/>
				<path class="st5" d="M98-3.6l1.4,0.3l0.4-1.9l2.8-0.4l-0.7,2.9l1.9,0.4l-0.4,1.7L101.6-1l-0.8,3.1c-0.2,0.8,0.1,1.3,0.9,1.5
					c0.3,0.1,0.5,0.1,0.8,0.1l-0.5,2c-0.6,0-1-0.1-1.5-0.2c-2.1-0.5-2.8-1.6-2.4-3.4l0.8-3.7l-1.4-0.3L98-3.6z"/>
				<path class="st5" d="M104.8-2.1l1.4,0.3l0.4-1.9l2.8-0.4l-0.6,2.9l1.9,0.4L110.3,1l-1.9-0.4l-0.7,3.1c-0.2,0.8,0.1,1.3,0.9,1.5
					c0.3,0.1,0.5,0.1,0.8,0.1l-0.5,2c-0.6,0-1-0.1-1.5-0.2c-2.1-0.5-2.8-1.6-2.4-3.4l0.8-3.7l-1.4-0.3L104.8-2.1z"/>
			</g>
		</g>
		<use xlink:href="#SVGID_5_"  style="overflow:visible;fill:none;stroke:#0185FF;stroke-miterlimit:10;"/>
	</g>
</g>
</svg>
